<svg width="21" height="24" viewBox="0 0 21 24" fill="none" xmlns="http://www.w3.org/2000/svg">
<path d="M5 11H7.4V13.3333H5V11ZM5 15.6667H7.4V18H5V15.6667ZM9.8 11H12.2V13.3333H9.8V11ZM9.8 15.6667H12.2V18H9.8V15.6667ZM14.6 11H17V13.3333H14.6V11ZM14.6 15.6667H17V18H14.6V15.6667Z" fill="black"/>
<path d="M2.33333 24H18.6667C19.9535 24 21 22.9236 21 21.6V4.8C21 3.4764 19.9535 2.4 18.6667 2.4H16.3333V0H14V2.4H7V0H4.66667V2.4H2.33333C1.0465 2.4 0 3.4764 0 4.8V21.6C0 22.9236 1.0465 24 2.33333 24ZM18.6667 7.2L18.6678 21.6H2.33333V7.2H18.6667Z" fill="black"/>
</svg>
