<svg width="20" height="21" viewBox="0 0 20 21" fill="none" xmlns="http://www.w3.org/2000/svg">
<path d="M19.1667 3.78H15.8333V1.68C15.8333 0.753375 15.0859 0 14.1667 0H5.83333C4.91406 0 4.16667 0.753375 4.16667 1.68V3.78H0.833333C0.372396 3.78 0 4.15537 0 4.62V5.46C0 5.5755 0.09375 5.67 0.208333 5.67H1.78125L2.42448 19.3988C2.46615 20.2939 3.20052 21 4.08854 21H15.9115C16.8021 21 17.5339 20.2965 17.5755 19.3988L18.2188 5.67H19.7917C19.9063 5.67 20 5.5755 20 5.46V4.62C20 4.15537 19.6276 3.78 19.1667 3.78ZM13.9583 3.78H6.04167V1.89H13.9583V3.78Z" fill="black"/>
</svg>
