<svg width="21" height="21" viewBox="0 0 21 21" fill="none" xmlns="http://www.w3.org/2000/svg">
<path d="M20.16 19.005H0.84C0.375375 19.005 0 19.3804 0 19.845V20.79C0 20.9055 0.0945 21 0.21 21H20.79C20.9055 21 21 20.9055 21 20.79V19.845C21 19.3804 20.6246 19.005 20.16 19.005ZM3.82463 16.8C3.87713 16.8 3.92963 16.7947 3.98213 16.7869L8.39738 16.0125C8.44988 16.002 8.49975 15.9784 8.5365 15.939L19.6639 4.81162C19.6882 4.78734 19.7075 4.75849 19.7207 4.72674C19.7339 4.69498 19.7406 4.66094 19.7406 4.62656C19.7406 4.59218 19.7339 4.55814 19.7207 4.52639C19.7075 4.49463 19.6882 4.46579 19.6639 4.4415L15.3011 0.076125C15.2513 0.02625 15.1856 0 15.1148 0C15.0439 0 14.9782 0.02625 14.9284 0.076125L3.801 11.2035C3.76162 11.2429 3.738 11.2901 3.7275 11.3426L2.95312 15.7579C2.92759 15.8985 2.93671 16.0432 2.97971 16.1795C3.0227 16.3158 3.09827 16.4396 3.19987 16.5401C3.37312 16.7081 3.591 16.8 3.82463 16.8Z" fill="black"/>
</svg>
