<svg width="18" height="24" viewBox="0 0 18 24" fill="none" xmlns="http://www.w3.org/2000/svg">
<path d="M10.1109 23.4607C12.5156 20.4435 18 13.1309 18 9.02335C18 4.04171 13.9688 0 9 0C4.03125 0 0 4.04171 0 9.02335C0 13.1309 5.48438 20.4435 7.88906 23.4607C8.46563 24.1798 9.53437 24.1798 10.1109 23.4607ZM9 6.01557C9.79565 6.01557 10.5587 6.33246 11.1213 6.89653C11.6839 7.4606 12 8.22564 12 9.02335C12 9.82106 11.6839 10.5861 11.1213 11.1502C10.5587 11.7142 9.79565 12.0311 9 12.0311C8.20435 12.0311 7.44129 11.7142 6.87868 11.1502C6.31607 10.5861 6 9.82106 6 9.02335C6 8.22564 6.31607 7.4606 6.87868 6.89653C7.44129 6.33246 8.20435 6.01557 9 6.01557Z" fill="#CE1127"/>
</svg>
