<svg width="30" height="28" viewBox="0 0 30 28" fill="none" xmlns="http://www.w3.org/2000/svg">
<path d="M30 13.1268C30 20.3765 23.2838 26.2536 15 26.2536C13.5143 26.2569 12.0346 26.064 10.5994 25.6798C9.50437 26.2349 6.99 27.3 2.76 27.9938C2.385 28.0539 2.1 27.6638 2.24813 27.315C2.91188 25.7473 3.51187 23.6582 3.69187 21.753C1.395 19.4464 0 16.4273 0 13.1268C0 5.87706 6.71625 0 15 0C23.2838 0 30 5.87706 30 13.1268ZM9.375 13.1268C9.375 12.6295 9.17746 12.1525 8.82582 11.8008C8.47419 11.4491 7.99728 11.2515 7.5 11.2515C7.00272 11.2515 6.52581 11.4491 6.17417 11.8008C5.82254 12.1525 5.625 12.6295 5.625 13.1268C5.625 13.6242 5.82254 14.1011 6.17417 14.4528C6.52581 14.8045 7.00272 15.0021 7.5 15.0021C7.99728 15.0021 8.47419 14.8045 8.82582 14.4528C9.17746 14.1011 9.375 13.6242 9.375 13.1268ZM16.875 13.1268C16.875 12.6295 16.6775 12.1525 16.3258 11.8008C15.9742 11.4491 15.4973 11.2515 15 11.2515C14.5027 11.2515 14.0258 11.4491 13.6742 11.8008C13.3225 12.1525 13.125 12.6295 13.125 13.1268C13.125 13.6242 13.3225 14.1011 13.6742 14.4528C14.0258 14.8045 14.5027 15.0021 15 15.0021C15.4973 15.0021 15.9742 14.8045 16.3258 14.4528C16.6775 14.1011 16.875 13.6242 16.875 13.1268ZM22.5 15.0021C22.9973 15.0021 23.4742 14.8045 23.8258 14.4528C24.1775 14.1011 24.375 13.6242 24.375 13.1268C24.375 12.6295 24.1775 12.1525 23.8258 11.8008C23.4742 11.4491 22.9973 11.2515 22.5 11.2515C22.0027 11.2515 21.5258 11.4491 21.1742 11.8008C20.8225 12.1525 20.625 12.6295 20.625 13.1268C20.625 13.6242 20.8225 14.1011 21.1742 14.4528C21.5258 14.8045 22.0027 15.0021 22.5 15.0021Z" fill="white"/>
</svg>
