<svg width="30" height="21" viewBox="0 0 30 21" fill="none" xmlns="http://www.w3.org/2000/svg">
<path d="M3.375 2.625C3.375 1.92881 3.65156 1.26113 4.14384 0.768845C4.63613 0.276562 5.30381 0 6 0C6.69619 0 7.36387 0.276562 7.85616 0.768845C8.34844 1.26113 8.625 1.92881 8.625 2.625C8.625 3.32119 8.34844 3.98887 7.85616 4.48116C7.36387 4.97344 6.69619 5.25 6 5.25C5.30381 5.25 4.63613 4.97344 4.14384 4.48116C3.65156 3.98887 3.375 3.32119 3.375 2.625ZM3 10.0172C2.53125 10.5422 2.25 11.2406 2.25 12C2.25 12.7594 2.53125 13.4578 3 13.9828V10.0172ZM9.76875 7.70625C8.37656 8.93906 7.5 10.7437 7.5 12.75C7.5 14.3578 8.0625 15.8344 9 16.9922V18C9 18.8297 8.32969 19.5 7.5 19.5H4.5C3.67031 19.5 3 18.8297 3 18V16.7438C1.22813 15.9 0 14.0953 0 12C0 9.09844 2.34844 6.75 5.25 6.75H6.75C7.875 6.75 8.91562 7.10156 9.76875 7.70156V7.70625ZM21 18V16.9922C21.9375 15.8344 22.5 14.3578 22.5 12.75C22.5 10.7437 21.6234 8.93906 20.2313 7.70156C21.0844 7.10156 22.125 6.75 23.25 6.75H24.75C27.6516 6.75 30 9.09844 30 12C30 14.0953 28.7719 15.9 27 16.7438V18C27 18.8297 26.3297 19.5 25.5 19.5H22.5C21.6703 19.5 21 18.8297 21 18ZM21.375 2.625C21.375 1.92881 21.6516 1.26113 22.1438 0.768845C22.6361 0.276562 23.3038 0 24 0C24.6962 0 25.3639 0.276562 25.8562 0.768845C26.3484 1.26113 26.625 1.92881 26.625 2.625C26.625 3.32119 26.3484 3.98887 25.8562 4.48116C25.3639 4.97344 24.6962 5.25 24 5.25C23.3038 5.25 22.6361 4.97344 22.1438 4.48116C21.6516 3.98887 21.375 3.32119 21.375 2.625ZM27 10.0172V13.9875C27.4688 13.4578 27.75 12.7641 27.75 12.0047C27.75 11.2453 27.4688 10.5469 27 10.0219V10.0172ZM15 0C15.7956 0 16.5587 0.316071 17.1213 0.87868C17.6839 1.44129 18 2.20435 18 3C18 3.79565 17.6839 4.55871 17.1213 5.12132C16.5587 5.68393 15.7956 6 15 6C14.2044 6 13.4413 5.68393 12.8787 5.12132C12.3161 4.55871 12 3.79565 12 3C12 2.20435 12.3161 1.44129 12.8787 0.87868C13.4413 0.316071 14.2044 0 15 0ZM11.25 12.75C11.25 13.5094 11.5312 14.2031 12 14.7328V10.7672C11.5312 11.2969 11.25 11.9906 11.25 12.75ZM18 10.7672V14.7375C18.4688 14.2078 18.75 13.5141 18.75 12.7547C18.75 11.9953 18.4688 11.2969 18 10.7719V10.7672ZM21 12.75C21 14.8453 19.7719 16.65 18 17.4938V19.5C18 20.3297 17.3297 21 16.5 21H13.5C12.6703 21 12 20.3297 12 19.5V17.4938C10.2281 16.65 9 14.8453 9 12.75C9 9.84844 11.3484 7.5 14.25 7.5H15.75C18.6516 7.5 21 9.84844 21 12.75Z" fill="white"/>
</svg>
