<svg width="30" height="30" viewBox="0 0 30 30" fill="none" xmlns="http://www.w3.org/2000/svg">
<path d="M3.33333 30H26.6667C28.505 30 30 28.6545 30 27V4.5C30 2.8455 28.505 1.5 26.6667 1.5H23.3333C23.3333 1.10218 23.1577 0.720644 22.8452 0.43934C22.5326 0.158035 22.1087 0 21.6667 0H8.33333C7.89131 0 7.46738 0.158035 7.15482 0.43934C6.84226 0.720644 6.66667 1.10218 6.66667 1.5H3.33333C1.495 1.5 0 2.8455 0 4.5V27C0 28.6545 1.495 30 3.33333 30ZM3.33333 4.5H6.66667V7.5H23.3333V4.5H26.6667V27H3.33333V4.5Z" fill="white"/>
<path d="M13.8837 17.5268L11.1134 14.8187L8.92871 16.9544L13.8837 21.798L21.9287 13.9337L19.744 11.798L13.8837 17.5268Z" fill="white"/>
</svg>
