<svg width="30" height="30" viewBox="0 0 30 30" fill="none" xmlns="http://www.w3.org/2000/svg">
<path fill-rule="evenodd" clip-rule="evenodd" d="M20.455 10.9091C20.455 13.9215 18.0129 16.3636 15.0004 16.3636C11.988 16.3636 9.5459 13.9215 9.5459 10.9091C9.5459 7.89661 11.988 5.45453 15.0004 5.45453C18.0129 5.45453 20.455 7.89661 20.455 10.9091ZM17.7277 10.9091C17.7277 12.4153 16.5067 13.6363 15.0004 13.6363C13.4942 13.6363 12.2732 12.4153 12.2732 10.9091C12.2732 9.40284 13.4942 8.1818 15.0004 8.1818C16.5067 8.1818 17.7277 9.40284 17.7277 10.9091Z" fill="white"/>
<path fill-rule="evenodd" clip-rule="evenodd" d="M15 0C6.71573 0 0 6.71573 0 15C0 23.2842 6.71573 30 15 30C23.2842 30 30 23.2842 30 15C30 6.71573 23.2842 0 15 0ZM2.72727 15C2.72727 17.8503 3.69893 20.4736 5.32906 22.5569C7.57152 19.6212 11.1086 17.7273 15.088 17.7273C19.0156 17.7273 22.5125 19.5724 24.7589 22.4431C26.3359 20.3786 27.2727 17.7987 27.2727 15C27.2727 8.22196 21.7781 2.72727 15 2.72727C8.22196 2.72727 2.72727 8.22196 2.72727 15ZM15 27.2727C12.0679 27.2727 9.37589 26.2444 7.265 24.5288C8.99116 22.0653 11.8514 20.4545 15.088 20.4545C18.2842 20.4545 21.1136 22.0256 22.8461 24.4376C20.719 26.2079 17.9838 27.2727 15 27.2727Z" fill="white"/>
</svg>
