<svg width="43" height="43" viewBox="0 0 43 43" fill="none" xmlns="http://www.w3.org/2000/svg">
<path d="M9.95062 11.5737L11.7263 9.77011C11.8841 9.6098 12.0419 9.6098 12.1998 9.77011L33.0339 30.9319C33.1917 31.0922 33.1917 31.2525 33.0339 31.4128L31.2582 33.2164C31.1004 33.3767 30.9426 33.3767 30.7847 33.2164L9.95062 12.0546C9.79278 11.8943 9.79278 11.734 9.95062 11.5737Z" fill="white"/>
<path d="M10.8976 29.9692L30.7847 9.76932C30.9426 9.609 31.1004 9.609 31.2582 9.76932L33.0339 11.5729C33.1917 11.7332 33.1917 11.8935 33.0339 12.0538L12.1998 33.2156C12.0419 33.3759 11.8841 33.3759 11.7263 33.2156L9.95062 31.412C9.79278 31.2517 9.79278 31.0914 9.95062 30.9311L10.8976 29.9692Z" fill="white"/>
</svg>
